<?xml version="1.0" encoding="utf-8"?>
<!-- Generator: Adobe Illustrator 21.1.0, SVG Export Plug-In . SVG Version: 6.00 Build 0)  -->
<svg version="1.1" id="Capa_1" xmlns="http://www.w3.org/2000/svg" xmlns:xlink="http://www.w3.org/1999/xlink" x="0px" y="0px"
	 viewBox="0 0 564.7 792" style="enable-background:new 0 0 564.7 792;" xml:space="preserve">
<style type="text/css">
	.st0{fill:#5680E9;}
	.st1{fill:#84CEEB;}
</style>
<g>
	<g>
		<path class="st0" d="M122.7,690.6c-1-197.8-21.6-396.3,7.6-593.1c17.2,6.6,46,15,54.2-7.3c6.3-17.1-8.2-39.1-17.8-51.9
			c-11.4-15.2-27.4-32.1-47.3-34.5c-12.6-1.6-19.7,6.1-23.6,16.2C90.9,11.2,83.9,3.9,73.7,1C58.9-3.2,44,6.5,35.2,17.5
			c-9.8,12.3-15,28.9-10.6,44.4c5.2,18.3,24.3,26.8,42.1,27.6C58.1,185,63,283.3,62.6,379c-0.5,102.1-0.9,204.1-0.7,306.2
			c-42.5-0.7-85.7,45.8-46.4,82.6c13.8,12.9,35.1,9.5,50,0.9c4-2.3,7.5-5.3,10.4-8.6c2.5,7.2,6.8,13.5,14.1,17.9
			c15.3,9.1,35.7,0.9,48.8-8.2c14-9.7,27-25.8,25.7-43.8C163,705,141.7,695.2,122.7,690.6z"/>
		<path class="st0" d="M559.5,51.4c-19.2-39.1-69.1-40.3-96.3-12.5c-2.9-15.4-10.2-29.2-28-31.3c-22.1-2.5-44.4,19.9-56.9,35.1
			c-10.7,13-25.8,35.3-18,53c9.2,20.8,39.6,12.9,57.2,5.9c11.5,108.5,6.7,217.2,0.3,326c-2.8,47.9-5.6,95.3-4.7,143.3
			c0.5,24.5,1,49.1,0.6,73.6c-0.4,20.4-5.2,40.5-5.5,60.7c0,0.1,0,0.2,0,0.3c-15.5-0.6-31,5.9-36.2,22.2
			c-5.2,16.1,5.8,33.8,16.1,45.3c11,12.2,27.4,21.1,44.1,18.8c8.5-1.2,14.3-6.3,18.2-13.1c12.6,10.8,33.7,15,48.4,7.1
			c43.6-23.4,21.3-84.7-23.5-87.7c4.6-41.4,0.5-85.6,1.5-126.9c1.3-52.7,3.6-105.3,5.8-157.9c4.4-101.4,11.8-204.2,6.8-305.8
			C524.5,151.1,582.2,97.7,559.5,51.4z"/>
		<path class="st1" d="M389.8,636c3.8-14.5,6.1-33.9-2.7-47.1c-10.7-16.1-30.5-8.5-43.7,0.1C316.3,535.8,309.1,472,291,415.5
			C269,347,243.2,280,230.2,209c15.1-1.5,28.1-15.3,34.8-28.3c9.5-18.3,2.2-44.6-14.4-56.7c-28.6-20.7-59.7,1.5-65.6,30.4
			c-20.1-13.4-48.7,4.5-54.9,30.4c-4.4,18.2,7.9,31.7,22.3,40.3c15.4,9.2,27.4,3.6,34.2-8.6c16.6,68,31.7,136.4,48.6,204.3
			c15.9,63.7,33,133,66.9,190c-16.8,8.8-34.5,23-34.1,43.5c0.3,15.4,12.5,27.7,25.7,33.9c12.5,5.9,29.2,8.5,41.4,0.4
			c6.5-4.3,9.7-10.4,10.9-17.1c5.2,3.8,11.4,5.4,18.4,2.6C379,668.2,386.1,650.2,389.8,636z"/>
	</g>
</g>
</svg>
